<svg width="512" height="512" viewBox="0 0 512 512" fill="none" xmlns="http://www.w3.org/2000/svg">
<rect width="512" height="512" rx="128" fill="#00087D"/>
<path d="M101.087 433.531C100.111 431.708 100.07 431.133 100.07 419.431C100.07 408.152 100.139 407.093 100.991 405.39C102.643 402.09 104.474 402.713 110.983 408.791C115.657 413.156 116.372 414.883 115.543 419.81L114.954 423.312L116.332 424.541C119.488 427.357 126.483 429.039 136.586 429.412C154.89 430.086 162.012 425.707 157.892 416.314C156.304 412.693 154.106 410.228 149.598 407.014C134.789 396.452 117.673 380.774 105.332 366.465C75.5786 331.968 59.7157 296.628 56.4735 257.618C54.0187 225.709 61.3113 193.09 73.6521 168.448C101.234 114.105 159.654 75.4214 227.117 66.8283C301.725 57.3251 376.294 85.3733 419.577 139.219C434.703 158.038 446.806 182.255 451.706 203.51C457.383 230.002 457.339 257.102 452.117 281.047C442.205 325.755 410.174 371.625 365.959 404.428C355.758 411.996 354.331 413.554 353.037 418.536C350.979 426.459 358.23 430.033 375.098 429.412C385.202 429.039 392.197 427.357 395.352 424.541L396.73 423.312L396.141 419.81C395.312 414.883 396.027 413.156 400.702 408.791C407.211 402.713 409.041 402.09 410.693 405.39C411.545 407.093 411.615 408.152 411.615 419.431C411.615 431.133 411.574 431.708 410.597 433.531C407.364 439.568 397.874 443.701 382.02 445.976C374.767 447.017 349.45 447.168 340.872 446.222C321.515 444.087 304.791 440.154 298.846 436.338C295.962 434.487 292.916 431.293 291.627 428.771C287.416 420.525 288.966 406.284 295.601 392.27C298.979 385.133 305.458 380.187 312.605 379.289C337.935 376.115 357.961 361.999 373.986 346.474C387.068 333.689 396.639 318.634 407.941 293.065C412.857 281.942 416.077 271.604 418.338 259.689C422.637 204.069 382.52 154.348 339.454 131.708C329.548 126.704 316.036 121.227 315.331 121.931C315.184 122.078 315.063 136.121 315.063 153.139C315.063 177.403 315.188 184.183 315.642 184.559C315.96 184.823 316.842 185.185 317.601 185.364C320.199 185.978 324.268 188.457 326.381 190.712C335.219 200.15 332.347 215.388 320.646 221.142C317.787 222.547 317.332 222.631 312.538 222.631C307.985 222.631 307.185 222.502 304.808 221.39C297.072 217.769 292.264 208.767 293.764 200.713C295.114 193.46 300.071 187.727 306.735 185.712C308.147 185.285 309.562 184.743 309.879 184.507C310.33 184.172 310.455 177.159 310.455 152.157C310.455 121.904 310.411 120.212 309.626 119.793C306.976 118.376 286.227 114.045 279.228 113.448L275.884 113.162L276.002 149.462L276.12 185.763L277.989 186.303C282.52 187.613 287.195 191.148 289.425 194.95C294.426 203.472 291.933 215.077 283.918 220.585C280.35 223.037 277.193 223.871 272.203 223.68C266.625 223.467 263.607 222.177 259.823 218.389C253.755 212.314 252.36 203.992 256.116 196.27C258.462 191.447 263.869 187.089 268.622 186.189C269.451 186.032 270.388 185.7 270.705 185.452C271.157 185.097 271.281 177.233 271.281 148.904C271.281 114.96 271.233 112.789 270.474 112.478C269.271 111.984 240.005 112.153 237.868 112.666L236.025 113.109L235.907 149.736L235.789 186.362L238.902 187.369C244.54 189.193 248.468 192.616 250.824 197.755C254.086 204.873 252.777 213.084 247.479 218.742C243.554 222.934 239.324 224.752 233.49 224.754C225.733 224.758 219.523 220.697 216.109 213.392C214.971 210.957 214.833 210.14 214.829 205.828C214.825 201.352 214.933 200.767 216.283 197.92C218.828 192.553 222.747 189.134 228.327 187.41L230.955 186.597L231.073 150.178L231.191 113.758H229.635C222.476 113.758 194.235 121.064 186.545 124.905L184.438 125.957L172.555 154.039C166.019 169.484 160.424 182.789 160.122 183.607C159.58 185.075 159.609 185.126 162.417 187.664C172.712 196.97 170.403 213.329 157.957 219.264C152.37 221.929 145.048 221.496 139.854 218.195C127.129 210.107 128.145 191.453 141.675 184.775C145.082 183.093 145.338 183.04 150.243 183.027L155.3 183.012L166.507 156.556C172.67 142.005 177.716 129.841 177.719 129.524C177.731 128.564 176.907 128.839 171.261 131.68C124.318 156.771 86.6718 210.682 94.0733 259.688C98.194 283.143 105.866 303.292 118.191 323.034C135.834 348.765 167.044 375.062 196.851 378.915C203.161 379.622 207.112 381.475 211.342 385.709C215.006 389.377 216.378 392.035 219.365 401.246C221.881 409.008 222.429 411.872 222.429 417.261C222.429 426.091 219.393 432.13 212.838 436.337C206.998 440.086 190.517 444 171.504 446.154C169.152 446.42 148.34 448.291 129.994 445.428C115.557 443.174 102.724 436.588 101.087 433.531ZM211.391 297.965C210.013 284.358 211.637 260.44 214.776 248.108C216.261 242.277 218.519 236.582 219.837 235.345C220.886 234.361 221.281 234.323 231.47 234.233L242.016 234.14L242.162 235.396C242.241 236.087 241.47 239.401 240.447 242.762C236.735 254.957 235.186 263.739 234.348 277.337C233.063 298.195 236.972 315.024 244.994 323.162C248.772 326.995 251.182 328.054 256.102 328.042C259.615 328.034 260.384 327.867 263.1 326.532C270.387 322.949 274.689 314.422 276.618 299.74C277.221 295.15 277.324 291.565 277.129 282.017C276.79 265.441 275.13 253.524 271.493 241.537C270.616 238.649 269.899 235.964 269.899 235.569C269.899 235.175 270.419 234.511 271.056 234.095C272.074 233.429 273.234 233.378 280.735 233.674C290.514 234.059 290.731 234.141 292.642 238.18C295.853 244.964 297.786 258.978 298.308 279.254C298.63 291.754 298.129 299.18 296.373 307.919C286.529 369.678 219.779 369.63 211.391 297.965ZM308.089 338.289C304.439 331.143 304.537 318.826 308.303 311.403C309.876 308.302 312.927 304.346 314.525 303.335C316.354 302.179 316.742 302.768 317.345 307.608C318.339 315.605 320.372 320.626 324.1 324.297C328.378 328.51 334.551 330.408 342.485 329.951C352.433 329.377 359.917 325.617 362.792 319.748C364.462 316.339 364.255 312.964 362.223 310.438C359.317 306.828 355.805 304.945 344.378 300.868C320.4 292.314 311.159 281.438 311.956 262.712C312.556 248.596 319.407 239.085 331.231 235.954C335.498 234.824 343.51 234.914 349.485 236.16C358.896 238.121 369.339 242.649 376.132 247.714C382.01 252.097 382.755 253.809 381 258.905C379.803 262.381 378.01 265.343 376.08 267.036C373.614 269.198 372.889 268.979 367.833 264.542C362.953 260.26 361.167 258.98 357.668 257.257C353.132 255.024 350.461 254.392 345.657 254.417C341.862 254.438 341.157 254.586 338.38 255.951C334.594 257.813 332.974 259.97 332.677 263.544C332.383 267.083 333.834 270.131 337.306 273.269C340.54 276.192 345.095 278.525 354.007 281.82C378.606 290.918 388.992 301.068 386.925 313.994C385.913 320.319 382.974 325.647 377.076 331.847C367.956 341.434 356.185 348 343.477 350.589C340.567 351.182 330.432 352.178 321.811 349.225C315.176 346.952 309.555 341.16 308.089 338.289ZM154.204 344.96C147.481 337.347 141.565 325.436 137.118 310.558C133.484 298.4 132.953 279.685 135.857 266.134C138.158 255.402 144.718 242.382 148.571 240.902C150.182 240.284 166.942 238.344 183.025 236.915C198.236 235.563 209.013 234.896 210.263 235.23C212.729 235.889 212.705 236.706 210.072 241.744C206.483 248.614 201.699 256.522 200.261 257.962C198.847 259.379 198.521 259.336 195.177 257.296C187.882 252.847 177.435 252.61 169.105 256.706C164.365 259.036 161.069 262.214 158.95 266.497C157.308 269.815 157.209 270.271 157.052 275.215C156.857 281.354 157.302 282.896 159.477 283.613C161.661 284.333 164.764 283.582 171.562 280.685C177.554 278.132 181.738 277.101 188.639 276.475C192.583 276.117 194.617 276.482 195.251 277.667C196.06 279.178 190.586 299.359 189.014 300.663C188.525 301.068 187.534 301.008 184.843 300.41C180.025 299.339 172.418 299.634 169.322 301.012C163.972 303.394 161.595 306.868 161.595 312.308C161.595 319.546 165.38 328.002 175.513 343.402C178.49 347.925 180.2 351.913 168.914 351.025C157.628 350.138 155.709 346.664 154.204 344.96Z" fill="white"/>
</svg>
